<svg width="805" height="709" viewBox="0 0 805 709" fill="none" xmlns="http://www.w3.org/2000/svg">
<g clip-path="url(#clip0_2_2)">
<path d="M303.46 124.224H540.142C549.224 124.224 556.612 116.996 556.612 108.114V16.1081C556.612 7.22588 549.224 0 540.142 0H303.46C294.379 0 286.991 7.22586 286.991 16.1081V108.114C286.991 116.996 294.379 124.224 303.46 124.224Z" fill="#D9D9D9"/>
<path d="M303.46 405.982H540.142C549.224 405.982 556.612 398.755 556.612 389.873V297.867C556.612 288.985 549.224 281.759 540.142 281.759H303.46C294.379 281.759 286.991 288.985 286.991 297.867V389.873C286.991 398.755 294.379 405.982 303.46 405.982Z" fill="#D8D8D8"/>
<path d="M304.866 263.46H397.914C407.471 263.46 415.247 255.855 415.247 246.506V158.272C415.247 148.924 407.471 141.319 397.914 141.319H304.866C295.308 141.319 287.532 148.924 287.532 158.272V246.506C287.532 255.855 295.308 263.46 304.866 263.46Z" fill="#D8D8D8"/>
<path d="M446.771 263.46H539.819C549.377 263.46 557.153 255.855 557.153 246.506V158.272C557.153 148.924 549.377 141.319 539.819 141.319H446.771C437.213 141.319 429.438 148.924 429.438 158.272V246.506C429.438 255.855 437.213 263.46 446.771 263.46Z" fill="#D8D8D8"/>
<path d="M64.7059 630.389L84.3129 650.526L105.209 631.632L85.6021 611.495L64.7059 630.389Z" fill="#EC9C9F"/>
<path d="M49.0444 651.013L90.7221 693.817C94.2843 697.476 98.7335 700.366 103.589 702.176L115.208 706.508C117.611 707.404 120.377 706.885 122.256 705.187C124.459 703.195 125.016 700.003 123.612 697.426L112.435 676.919L100.508 635.333L100.378 635.411C97.134 637.366 92.2128 640.298 91.8621 640.422C85.6859 640.636 81.2646 639.117 78.7195 635.907C74.2804 630.31 77.0967 621.374 77.1256 621.284L77.1478 621.215L77.0915 621.168C75.7975 620.087 74.4346 619.655 73.0403 619.883C70.0805 620.367 67.9632 623.619 67.6534 624.119C64.8758 624.004 56.348 630.537 55.6618 631.066C51.475 631.055 48.4056 632.026 46.5395 633.953C44.908 635.637 44.1975 638.028 44.4277 641.058C44.7046 644.705 46.3442 648.24 49.0444 651.013Z" fill="#090814"/>
<path d="M87.3417 653.573H115.996V681.187H87.3417V653.573Z" fill="#EC9C9F"/>
<path d="M92.2325 706.305H153.142C158.348 706.305 163.58 705.156 168.272 702.982L179.501 697.781C181.823 696.706 183.323 694.407 183.323 691.924C183.323 689.013 181.289 686.437 178.378 685.661L155.212 679.484L115.581 659.41L115.551 659.554C114.81 663.171 113.662 668.636 113.516 668.968C109.451 673.454 105.276 675.522 101.106 675.114C93.8329 674.404 88.9976 666.31 88.9496 666.228L88.9128 666.166L88.8386 666.173C87.1354 666.343 85.8755 667.005 85.0939 668.141C83.4347 670.552 84.4469 674.265 84.6134 674.825C82.6263 676.698 81.7346 687.161 81.6656 688.006C78.7925 690.94 77.4271 693.762 77.608 696.391C77.7661 698.69 79.0892 700.825 81.5402 702.737C84.489 705.038 88.2862 706.305 92.2325 706.305Z" fill="#090814"/>
<path d="M83.94 305.803L185.477 305.852L219.323 512.37L117.786 630.408L83.94 600.898L164.183 512.37L83.94 305.803Z" fill="#090814"/>
<path d="M143.954 336.246L83.9399 305.803V659.917L117.786 660.826L143.954 336.246Z" fill="#090814"/>
<path d="M204.069 388.619L203.354 356.383L222.597 355.975L223.312 388.211C226.902 391.47 229.272 396.536 229.4 402.278C229.622 412.327 222.911 420.618 214.409 420.799C205.907 420.979 198.834 412.98 198.611 402.932C198.484 397.189 200.627 392.028 204.069 388.619Z" fill="#EC9C9F"/>
<path d="M112.82 73.8014C112.82 73.8014 85.1978 73.743 95.5166 47.7105C105.835 21.678 125.05 33.3341 125.05 33.3341C125.05 33.3341 133.146 37.517 131.477 46.8495" fill="#090814"/>
<path d="M110.055 86.2884C110.055 66.329 126.598 50.1489 147.004 50.1489C167.41 50.1489 183.953 66.329 183.953 86.2884C183.953 102.475 173.072 116.175 158.074 120.776L150.931 166.948L114.518 137.268C114.518 137.268 122.384 127.468 126.603 116.417C116.632 109.945 110.055 98.87 110.055 86.2884Z" fill="#EC9C9F"/>
<path d="M129.252 116.818C129.252 116.818 124.346 98.4177 132.369 89.9573C140.373 81.5162 141.407 94.6502 141.407 94.6502L147.183 93.4221C147.183 93.4221 146.179 80.6494 157.48 78.4387L150.197 63.2098C150.197 63.2098 178.079 68.5049 178.848 65.8636C184.895 45.0805 127.208 27.3268 111.272 59.0341C86.4869 108.349 129.252 116.818 129.252 116.818Z" fill="#090814"/>
<path d="M161.888 149.013C188.713 154.14 208.848 175.986 211.289 202.612L227.986 384.707H198.686L161.888 149.013Z" fill="#D9D9D9"/>
<path d="M189.593 294.095L194.157 345.51L70.2875 309.876L85.3807 272.714L57.276 209.591L114.647 129.16L160.448 132.214L178.143 154.613" fill="#D9D9D9"/>
<path d="M88.5786 342.923L71.3017 315.463L87.694 305.596L104.971 333.057C109.753 334.094 114.416 337.293 117.494 342.185C122.879 350.745 121.374 361.217 114.131 365.577C106.889 369.936 96.6516 366.531 91.2662 357.971C88.1883 353.079 87.3705 347.566 88.5786 342.923Z" fill="#EC9C9F"/>
<path d="M124.016 130.178L114.028 129.773L96.9517 142.395C76.7176 145.77 70.8495 146.717 64.6499 159.79C62.0448 165.283 60.3178 171.135 59.3522 177.116L44.9059 266.606L81.2172 352.128L105.279 325.657L79.5565 258.793L83.8297 242.8" fill="#D9D9D9"/>
</g>
<defs>
<clipPath id="clip0_2_2">
<rect width="963" height="709" fill="white" transform="matrix(-1 0 0 1 805 0)"/>
</clipPath>
</defs>
</svg>
